<?xml version="1.0" encoding="UTF-8" standalone="no"?>
<!DOCTYPE svg PUBLIC "-//W3C//DTD SVG 1.1//EN"
 "http://www.w3.org/Graphics/SVG/1.1/DTD/svg11.dtd">
<!-- Generated by graphviz version 2.47.2 (20210527.1257)
 -->
<!-- Title: snakemake_dag Pages: 1 -->
<svg width="570pt" height="476pt"
 viewBox="0.00 0.00 570.00 476.00" xmlns="http://www.w3.org/2000/svg" xmlns:xlink="http://www.w3.org/1999/xlink">
<g id="graph0" class="graph" transform="scale(1 1) rotate(0) translate(4 472)">
<title>snakemake_dag</title>
<polygon fill="white" stroke="transparent" points="-4,4 -4,-472 566,-472 566,4 -4,4"/>
<!-- 0 -->
<g id="node1" class="node">
<title>0</title>
<path fill="none" stroke="#d8bc56" stroke-width="2" d="M167,-36C167,-36 137,-36 137,-36 131,-36 125,-30 125,-24 125,-24 125,-12 125,-12 125,-6 131,0 137,0 137,0 167,0 167,0 173,0 179,-6 179,-12 179,-12 179,-24 179,-24 179,-30 173,-36 167,-36"/>
<text text-anchor="middle" x="152" y="-15.5" font-family="sans" font-size="10.00">all</text>
</g>
<!-- 1 -->
<g id="node2" class="node">
<title>1</title>
<path fill="none" stroke="#d85656" stroke-width="2" d="M278,-108C278,-108 192,-108 192,-108 186,-108 180,-102 180,-96 180,-96 180,-84 180,-84 180,-78 186,-72 192,-72 192,-72 278,-72 278,-72 284,-72 290,-78 290,-84 290,-84 290,-96 290,-96 290,-102 284,-108 278,-108"/>
<text text-anchor="middle" x="235" y="-87.5" font-family="sans" font-size="10.00">bismark2bedGraph</text>
</g>
<!-- 1&#45;&gt;0 -->
<g id="edge1" class="edge">
<title>1&#45;&gt;0</title>
<path fill="none" stroke="grey" stroke-width="2" d="M214.48,-71.7C204.13,-62.97 191.41,-52.24 180.16,-42.75"/>
<polygon fill="grey" stroke="grey" stroke-width="2" points="182.18,-39.88 172.28,-36.1 177.67,-45.23 182.18,-39.88"/>
</g>
<!-- 2 -->
<g id="node3" class="node">
<title>2</title>
<path fill="none" stroke="#56d88a" stroke-width="2" d="M246,-180C246,-180 154,-180 154,-180 148,-180 142,-174 142,-168 142,-168 142,-156 142,-156 142,-150 148,-144 154,-144 154,-144 246,-144 246,-144 252,-144 258,-150 258,-156 258,-156 258,-168 258,-168 258,-174 252,-180 246,-180"/>
<text text-anchor="middle" x="200" y="-159.5" font-family="sans" font-size="10.00">extract_methylation</text>
</g>
<!-- 2&#45;&gt;0 -->
<g id="edge7" class="edge">
<title>2&#45;&gt;0</title>
<path fill="none" stroke="grey" stroke-width="2" d="M189,-143.94C182.92,-133.84 175.67,-120.59 171,-108 163.54,-87.91 158.65,-64.13 155.71,-46.21"/>
<polygon fill="grey" stroke="grey" stroke-width="2" points="159.14,-45.49 154.15,-36.14 152.22,-46.56 159.14,-45.49"/>
</g>
<!-- 2&#45;&gt;1 -->
<g id="edge10" class="edge">
<title>2&#45;&gt;1</title>
<path fill="none" stroke="grey" stroke-width="2" d="M208.65,-143.7C212.64,-135.73 217.45,-126.1 221.87,-117.26"/>
<polygon fill="grey" stroke="grey" stroke-width="2" points="225.11,-118.61 226.45,-108.1 218.85,-115.48 225.11,-118.61"/>
</g>
<!-- 3 -->
<g id="node4" class="node">
<title>3</title>
<path fill="none" stroke="#d88d56" stroke-width="2" d="M181.5,-252C181.5,-252 116.5,-252 116.5,-252 110.5,-252 104.5,-246 104.5,-240 104.5,-240 104.5,-228 104.5,-228 104.5,-222 110.5,-216 116.5,-216 116.5,-216 181.5,-216 181.5,-216 187.5,-216 193.5,-222 193.5,-228 193.5,-228 193.5,-240 193.5,-240 193.5,-246 187.5,-252 181.5,-252"/>
<text text-anchor="middle" x="149" y="-231.5" font-family="sans" font-size="10.00">sort_individual</text>
</g>
<!-- 3&#45;&gt;0 -->
<g id="edge2" class="edge">
<title>3&#45;&gt;0</title>
<path fill="none" stroke="grey" stroke-width="2" d="M142.35,-215.63C138.8,-205.42 134.8,-192.17 133,-180 126.09,-133.22 136.44,-78.5 144.36,-46.41"/>
<polygon fill="grey" stroke="grey" stroke-width="2" points="147.82,-46.99 146.93,-36.44 141.05,-45.25 147.82,-46.99"/>
</g>
<!-- 3&#45;&gt;2 -->
<g id="edge11" class="edge">
<title>3&#45;&gt;2</title>
<path fill="none" stroke="grey" stroke-width="2" d="M161.61,-215.7C167.6,-207.47 174.88,-197.48 181.48,-188.42"/>
<polygon fill="grey" stroke="grey" stroke-width="2" points="184.48,-190.25 187.54,-180.1 178.82,-186.13 184.48,-190.25"/>
</g>
<!-- 4 -->
<g id="node5" class="node">
<title>4</title>
<path fill="none" stroke="#59d856" stroke-width="2" d="M128,-324C128,-324 78,-324 78,-324 72,-324 66,-318 66,-312 66,-312 66,-300 66,-300 66,-294 72,-288 78,-288 78,-288 128,-288 128,-288 134,-288 140,-294 140,-300 140,-300 140,-312 140,-312 140,-318 134,-324 128,-324"/>
<text text-anchor="middle" x="103" y="-303.5" font-family="sans" font-size="10.00">deduplicate</text>
</g>
<!-- 4&#45;&gt;0 -->
<g id="edge6" class="edge">
<title>4&#45;&gt;0</title>
<path fill="none" stroke="grey" stroke-width="2" d="M99.35,-287.91C96.01,-269.97 92.01,-240.95 95,-216 102.83,-150.6 109.54,-134.6 130,-72 132.85,-63.29 136.49,-53.99 139.99,-45.66"/>
<polygon fill="grey" stroke="grey" stroke-width="2" points="143.23,-46.98 143.97,-36.41 136.8,-44.21 143.23,-46.98"/>
</g>
<!-- 4&#45;&gt;3 -->
<g id="edge12" class="edge">
<title>4&#45;&gt;3</title>
<path fill="none" stroke="grey" stroke-width="2" d="M114.37,-287.7C119.72,-279.56 126.2,-269.69 132.11,-260.7"/>
<polygon fill="grey" stroke="grey" stroke-width="2" points="135.19,-262.38 137.76,-252.1 129.34,-258.54 135.19,-262.38"/>
</g>
<!-- 5 -->
<g id="node6" class="node">
<title>5</title>
<path fill="none" stroke="#88d856" stroke-width="2" d="M95,-396C95,-396 63,-396 63,-396 57,-396 51,-390 51,-384 51,-384 51,-372 51,-372 51,-366 57,-360 63,-360 63,-360 95,-360 95,-360 101,-360 107,-366 107,-372 107,-372 107,-384 107,-384 107,-390 101,-396 95,-396"/>
<text text-anchor="middle" x="79" y="-375.5" font-family="sans" font-size="10.00">bismark</text>
</g>
<!-- 5&#45;&gt;0 -->
<g id="edge3" class="edge">
<title>5&#45;&gt;0</title>
<path fill="none" stroke="grey" stroke-width="2" d="M70.7,-359.97C58.72,-333.77 38,-281.7 38,-235 38,-235 38,-235 38,-161 38,-110 83.27,-66.88 116.76,-41.97"/>
<polygon fill="grey" stroke="grey" stroke-width="2" points="118.92,-44.73 124.98,-36.04 114.83,-39.05 118.92,-44.73"/>
</g>
<!-- 5&#45;&gt;4 -->
<g id="edge13" class="edge">
<title>5&#45;&gt;4</title>
<path fill="none" stroke="grey" stroke-width="2" d="M84.93,-359.7C87.61,-351.9 90.83,-342.51 93.8,-333.83"/>
<polygon fill="grey" stroke="grey" stroke-width="2" points="97.2,-334.7 97.14,-324.1 90.58,-332.43 97.2,-334.7"/>
</g>
<!-- 6 -->
<g id="node7" class="node">
<title>6</title>
<path fill="none" stroke="#568ad8" stroke-width="2" d="M103,-468C103,-468 55,-468 55,-468 49,-468 43,-462 43,-456 43,-456 43,-444 43,-444 43,-438 49,-432 55,-432 55,-432 103,-432 103,-432 109,-432 115,-438 115,-444 115,-444 115,-456 115,-456 115,-462 109,-468 103,-468"/>
<text text-anchor="middle" x="79" y="-447.5" font-family="sans" font-size="10.00">bbduk_trim</text>
</g>
<!-- 6&#45;&gt;0 -->
<g id="edge8" class="edge">
<title>6&#45;&gt;0</title>
<path fill="none" stroke="grey" stroke-width="2" d="M61.86,-431.89C38.62,-406.8 0,-357.5 0,-307 0,-307 0,-307 0,-161 0,-115.41 18.17,-103.63 51,-72 69.34,-54.33 94.75,-41.03 115.49,-32.18"/>
<polygon fill="grey" stroke="grey" stroke-width="2" points="117.02,-35.34 124.95,-28.31 114.37,-28.86 117.02,-35.34"/>
</g>
<!-- 6&#45;&gt;5 -->
<g id="edge14" class="edge">
<title>6&#45;&gt;5</title>
<path fill="none" stroke="grey" stroke-width="2" d="M79,-431.7C79,-423.98 79,-414.71 79,-406.11"/>
<polygon fill="grey" stroke="grey" stroke-width="2" points="82.5,-406.1 79,-396.1 75.5,-406.1 82.5,-406.1"/>
</g>
<!-- 9 -->
<g id="node10" class="node">
<title>9</title>
<path fill="none" stroke="#56c1d8" stroke-width="2" d="M280,-324C280,-324 232,-324 232,-324 226,-324 220,-318 220,-312 220,-312 220,-300 220,-300 220,-294 226,-288 232,-288 232,-288 280,-288 280,-288 286,-288 292,-294 292,-300 292,-300 292,-312 292,-312 292,-318 286,-324 280,-324"/>
<text text-anchor="middle" x="256" y="-303.5" font-family="sans" font-size="10.00">fastqc_trim</text>
</g>
<!-- 6&#45;&gt;9 -->
<g id="edge15" class="edge">
<title>6&#45;&gt;9</title>
<path fill="none" stroke="grey" stroke-width="2" d="M100.35,-431.87C131.85,-406.6 190.87,-359.25 226.48,-330.68"/>
<polygon fill="grey" stroke="grey" stroke-width="2" points="228.96,-333.18 234.57,-324.19 224.58,-327.72 228.96,-333.18"/>
</g>
<!-- 7 -->
<g id="node8" class="node">
<title>7</title>
<path fill="none" stroke="#bed856" stroke-width="2" d="M462,-108C462,-108 358,-108 358,-108 352,-108 346,-102 346,-96 346,-96 346,-84 346,-84 346,-78 352,-72 358,-72 358,-72 462,-72 462,-72 468,-72 474,-78 474,-84 474,-84 474,-96 474,-96 474,-102 468,-108 462,-108"/>
<text text-anchor="middle" x="410" y="-87.5" font-family="sans" font-size="10.00">bismark_genome_prep</text>
</g>
<!-- 7&#45;&gt;0 -->
<g id="edge4" class="edge">
<title>7&#45;&gt;0</title>
<path fill="none" stroke="grey" stroke-width="2" d="M347.22,-71.97C297.71,-58.53 230.37,-40.26 189.1,-29.07"/>
<polygon fill="grey" stroke="grey" stroke-width="2" points="189.77,-25.62 179.2,-26.38 187.94,-32.38 189.77,-25.62"/>
</g>
<!-- 8 -->
<g id="node9" class="node">
<title>8</title>
<path fill="none" stroke="#56d8c1" stroke-width="2" d="M550,-108C550,-108 504,-108 504,-108 498,-108 492,-102 492,-96 492,-96 492,-84 492,-84 492,-78 498,-72 504,-72 504,-72 550,-72 550,-72 556,-72 562,-78 562,-84 562,-84 562,-96 562,-96 562,-102 556,-108 550,-108"/>
<text text-anchor="middle" x="527" y="-87.5" font-family="sans" font-size="10.00">fastqc_raw</text>
</g>
<!-- 8&#45;&gt;0 -->
<g id="edge5" class="edge">
<title>8&#45;&gt;0</title>
<path fill="none" stroke="grey" stroke-width="2" d="M491.67,-74.62C488.76,-73.66 485.85,-72.77 483,-72 378.37,-43.75 250.81,-28.55 189.04,-22.37"/>
<polygon fill="grey" stroke="grey" stroke-width="2" points="189.3,-18.88 179,-21.39 188.61,-25.84 189.3,-18.88"/>
</g>
<!-- 9&#45;&gt;0 -->
<g id="edge9" class="edge">
<title>9&#45;&gt;0</title>
<path fill="none" stroke="grey" stroke-width="2" d="M266.94,-287.96C291.84,-246.8 347,-140.33 299,-72 274.41,-36.99 224.34,-25 189.51,-20.96"/>
<polygon fill="grey" stroke="grey" stroke-width="2" points="189.53,-17.44 179.23,-19.94 188.84,-24.41 189.53,-17.44"/>
</g>
</g>
</svg>
